<svg xmlns="http://www.w3.org/2000/svg" xmlns:xlink="http://www.w3.org/1999/xlink" x="0px" y="0px" viewBox="0 0 500 500" style="enable-background:new 0 0 500 500;" xml:space="preserve"><style type="text/css">	.st0{display:none;}	.st1{display:inline;fill:#FFFFFF;}	.st2{fill:#C1FF3B;}</style><g id="BACKGROUND" class="st0">	<rect class="st1" width="500" height="500"></rect></g><g id="OBJECTS">	<g>		<g>			<g>				<g>					<path class="st2" d="M440.1,397.3c-8.3-10.9-14.2-23.6-20.8-35.6c-6.5-11.7-13-23.5-19.5-35.2c-23.1-41.6-46.1-83.3-69.3-124.9      c-23.3-41.8-46.2-84-70.4-125.4c-2.6-4.5-6.6-6.1-10.5-5.8c-3.9-0.3-7.9,1.3-10.5,5.8c-24.2,41.4-47,83.6-70.4,125.4      c-23.2,41.6-112.8,197.1-112.8,202c0,6.9,6.1,13.5,13.3,13.3c90.6-3.3,45.3-0.9,150.9-1.6c13.4-0.1,161.1-1,174.5-0.6      c6.4,0.2,36.1,1,39.9-0.5C440.2,411.7,444.4,403,440.1,397.3z M150.1,282.8c0.2-0.3,0.3-0.6,0.5-0.9c0.6-0.4,1.2-0.8,1.8-1.2      c6.8-4.3,13.7-8.6,20.9-12.1c11.8-5.8,24.5-10.1,37.4-13.2c-8.1,9-13,20.6-13,33.4c0,9.6,3.4,19,9.1,26.5      c-7.8-2-15.4-4.7-22.8-7.7c-7.5-3.1-14.6-7.3-21.5-11.8c-4.8-3.2-9.6-6.6-14.8-9.2C148.6,285.5,149.4,284.1,150.1,282.8z       M289.9,304.7c-3.6,5.4-8.2,9.6-13.4,12.6c-2.4,0.4-4.8,0.8-7.3,1.1c-7.3,0.9-14.5,1.8-21.9,1.9c-7.4,0.1-14.4-0.7-21.7-1.4      c-0.5-0.1-1.1-0.1-1.6-0.2c-9-5.6-15.4-14.7-16.3-25.9c-1.4-18.1,9.9-34.3,26.4-41c0.2-0.1,0.5-0.2,0.7-0.3      c10.9-0.9,22-0.6,32.7,0.6c2.9,0.3,5.8,0.8,8.6,1.4c3.1,1.7,6,3.8,8.6,6.3C297.3,271.7,299.5,290.2,289.9,304.7z M298.6,258.6      c5.4,1.5,10.9,3.5,15.6,5.9c8,4,16.2,7.3,24,11.8c3.6,2.1,7.1,4.2,10.6,6.5c0,0.1,0.1,0.1,0.1,0.2c0.3,0.5,0.6,1.1,0.9,1.6      c-15.6,12.3-33.8,21.9-52.9,27.9C308.6,296.3,310.1,275,298.6,258.6z M220.3,158.5c9.7-17.2,19.6-34.4,29.2-51.6      c9.6,17.3,19.5,34.4,29.2,51.6c18.4,32.8,36.9,65.6,55.5,98.3c-2.2-1.2-4.4-2.5-6.6-3.7c-3.7-2.1-7.7-3.2-11.5-4.9      c-4.2-1.8-8.5-3.4-12.9-4.6c-8.7-2.5-17.1-4.5-26-5.9c-34.6-5.5-71.3-0.9-103.1,13.9c-2.8,1.3-5.6,2.6-8.4,4      C183.8,223.2,202.1,190.9,220.3,158.5z M400.5,391.4c-12-0.4-24.1-0.5-36.2-0.8c-23.8-0.7-47.5-1.2-71.3-1.4      c-47.5-0.4-95.1-0.9-142.6-0.1c-20.5,0.3-41,0.6-61.5,0.9c2.8-4.9,5.8-9.6,8.6-14.5c5.8-10.2,11.6-20.4,17.4-30.6      c9-15.9,18.1-31.9,27.1-47.8c7.7,9.9,20.5,16.5,31,21.5c14.3,6.9,28.9,11.7,44.5,14.3c31.9,5.4,65.3,1.5,95.4-10.9      c15.7-6.5,30.4-14.9,44.1-25.1c9.1,16,18.1,32,27.2,48c5.8,10.2,11.6,20.4,17.4,30.6c3.2,5.6,6.7,11.2,10,16.9      C407.8,392,404.2,391.5,400.5,391.4z"></path>					<path class="st2" d="M255.1,259.2c-13.9-1.8-28.1,8.4-31,22.1c-1.6,7.5,3.4,20.3,3.4,20.4c3.7,8,16.3,14.6,25.3,14      c14.1-0.9,26.4-13.2,27-27.4C280.4,274.3,268.9,261,255.1,259.2z"></path>				</g>				<path class="st2" d="M245.7,129.4c-0.1,0-0.2,0-0.3,0c-1.5,0-2.5,1.5-3.3,2.7c-8.6,14-15.6,29.1-23,43.8     c-2.9,5.7-5.7,11.3-8.6,17c-1.8,3.5-3.7,6.9-5.6,10.4c-2.2,4-4.2,8.1-6.3,12.1c-1.5,3-3.2,6.1-4.3,9.3c-0.6,1.2-1.2,2.4-1.8,3.6     c-1.8,3.5,3.5,6.7,5.4,3.1c15.9-31.8,33.5-62.6,49-94.6c0.7-1.4,1.4-2.8,1.3-4.4C248.1,131,247,129.5,245.7,129.4z"></path>				<path class="st2" d="M144,317.2c-0.9,0-1.8,0.4-2.5,1c-0.9,0.8-1.4,1.8-2,2.8c-9.3,17.6-19.5,34.8-28.5,52.5     c-0.6,1.1-1.1,2.3-1.3,3.5c-0.2,1.2,0.2,2.6,1.1,3.4c1.3,1,3.2,0.8,4.5-0.2c1.3-0.9,2.2-2.4,2.9-3.8     c5.5-9.8,11.1-19.7,16.2-29.7c1.4-3.5,4.1-6.2,5.6-9.6c1.8-4.2,3.7-8.5,5.5-12.7c0.5-1.2,1.1-2.5,1.1-3.8c0-1.3-0.7-2.8-2-3.2     C144.4,317.3,144.2,317.2,144,317.2z"></path>				<path class="st2" d="M349.1,309.3c-18.1,14-38.3,24.4-60.7,30c-19.5,4.9-38.3,4.9-58.2,4.3c-1.7-0.1-3.5-0.1-4.8,1     c-1.3,1-1.5,3.5,0.1,4.2c21.2,4.3,42.3,4.1,63.4-0.9c23.9-5.7,46.1-16.7,65.2-32C357.7,312.9,352.8,306.5,349.1,309.3z"></path>			</g>		</g>	</g></g></svg>